<svg width="100" height="60" viewBox="0 0 100 60" fill="none" xmlns="http://www.w3.org/2000/svg">
<path d="M27.52 23.5H25.3V36.13H27.52V23.5ZM20.3 29.9C20.3204 30.8545 20.0671 31.7949 19.57 32.61C19.3313 33.0613 18.9912 33.4511 18.5763 33.7486C18.1615 34.0462 17.6832 34.2434 17.1792 34.3248C16.6752 34.4063 16.1592 34.3696 15.6717 34.2178C15.1843 34.066 14.7387 33.8032 14.37 33.45C13.9481 32.9469 13.6293 32.3656 13.432 31.7394C13.2347 31.1131 13.1627 30.4541 13.22 29.8C13.1655 29.0961 13.2702 28.389 13.5264 27.7311C13.7827 27.0733 14.1838 26.4816 14.7 26C15.2268 25.4786 15.9389 25.1873 16.68 25.19C17.44 25.21 18.18 25.48 18.78 25.96C20.38 27.31 20.31 29.78 20.31 29.9M21.44 39.67C22.39 38.43 22.46 37.14 22.53 34.49L22.5 23.49H20.38V25.45C19.9668 24.7538 19.3734 24.1819 18.6624 23.7948C17.9514 23.4076 17.1491 23.2194 16.34 23.25C15.502 23.2494 14.6768 23.4552 13.9372 23.8494C13.1977 24.2436 12.5667 24.8139 12.1 25.51C11.2312 26.8051 10.7937 28.3415 10.85 29.9C10.83 30.8067 10.9534 31.6933 11.22 32.56C11.5373 33.6373 12.1506 34.604 12.99 35.35C13.9292 36.1196 15.1297 36.4958 16.34 36.4C17.4363 36.3548 18.4915 35.9704 19.36 35.3C19.6934 35.02 19.9767 34.7033 20.21 34.35L20.2 36.08C20.1806 36.6514 20.0796 37.2172 19.9 37.76C19.78 38.12 19.5934 38.44 19.34 38.72C18.9777 39.1147 18.5297 39.4209 18.0303 39.615C17.531 39.8092 16.9938 39.8862 16.46 39.84C15.36 39.84 14.29 39.66 13.25 39.3C12.8145 39.1419 12.3958 38.9409 12 38.7L11.77 40.9C13.2138 41.493 14.7593 41.7987 16.32 41.8C17.5721 41.8476 18.8153 41.5721 19.93 41C20.5367 40.6667 21.04 40.2233 21.44 39.67ZM25.16 20.49H27.59V18H25.16V20.49ZM35.78 25.38C36.3134 25.38 36.8234 25.48 37.31 25.68V23.46C37.21 23.46 36.52 23.36 35.95 23.36C35.3896 23.3358 34.831 23.4394 34.3164 23.6629C33.8019 23.8863 33.3449 24.2239 32.98 24.65C32.7534 24.95 32.5467 25.27 32.36 25.61L32.25 23.5H30.1C30.17 25.08 30.23 26.19 30.23 27.75C30.23 29.58 30.19 30.87 30.19 32.68V36.13H32.49V29.95C32.56 28.75 32.63 27.16 33.85 26.09C34.38 25.62 35.05 25.36 35.76 25.38M47.38 29.69C47.38 31.08 46.95 33.09 45.25 34.05C44.7504 34.3254 44.1924 34.4781 43.6221 34.4955C43.0518 34.5128 42.4856 34.3944 41.97 34.15C41.7515 34.0361 41.5439 33.9022 41.35 33.75C40.8141 33.313 40.4007 32.7445 40.15 32.1C39.8406 31.3216 39.6975 30.487 39.73 29.65C39.726 28.9729 39.8595 28.302 40.1225 27.678C40.3855 27.054 40.7725 26.4899 41.26 26.02C41.96 25.42 42.83 25.1 43.74 25.12C44.4639 25.1323 45.1661 25.3688 45.75 25.7968C46.3338 26.2248 46.7706 26.8234 47 27.51C47.2534 28.2167 47.38 28.9433 47.38 29.69ZM47.88 34.74C48.511 34.057 48.9996 33.2551 49.3172 32.3812C49.6349 31.5072 49.7752 30.5788 49.73 29.65C49.7661 28.487 49.4845 27.3361 48.9153 26.3212C48.3462 25.3063 47.5112 24.4658 46.5 23.89C45.0648 23.2282 43.4397 23.1034 41.9202 23.5383C40.4007 23.9732 39.0878 24.939 38.22 26.26C37.6302 27.3675 37.3276 28.6053 37.34 29.86C37.2814 30.7965 37.4263 31.7345 37.7646 32.6097C38.103 33.4849 38.6268 34.2765 39.3 34.93C39.5534 35.15 39.82 35.35 40.1 35.53C41.12 36.14 42.3 36.43 43.5 36.37C44.41 36.4 45.33 36.24 46.17 35.88C46.8034 35.6067 47.37 35.2267 47.87 34.74" fill="url(#paint0_linear_91_304)"/>
<path d="M51.7 26.19C51.77 28.63 51.77 30.36 51.77 32.82C51.77 35.88 51.71 38.94 51.7 42H53.95V34.42C54.17 34.72 54.41 34.9867 54.67 35.22C55.5276 35.9766 56.6364 36.3866 57.78 36.37C58.5286 36.374 59.2699 36.2223 59.9568 35.9244C60.6437 35.6266 61.2612 35.1892 61.77 34.64C62.9836 33.1996 63.6023 31.3507 63.5 29.47C63.4933 28.51 63.3266 27.5867 63 26.7C62.6402 25.6591 61.9593 24.7594 61.0553 24.1304C60.1513 23.5014 59.071 23.1756 57.97 23.2C57.1466 23.1931 56.3347 23.3938 55.6094 23.7835C54.884 24.1733 54.2686 24.7395 53.82 25.43L53.72 23.5H51.59C51.65 24.5 51.66 25.19 51.69 26.19M53.9 29.71C53.9066 29.1033 53.9933 28.5167 54.16 27.95C54.3514 27.1801 54.7891 26.4939 55.4064 25.9956C56.0238 25.4974 56.787 25.2145 57.58 25.19C58.2381 25.2023 58.8785 25.4054 59.4235 25.7746C59.9685 26.1439 60.3945 26.6633 60.65 27.27C61.02 28.07 61.18 28.97 61.12 29.85C61.12 30.5233 61.01 31.1733 60.79 31.8C60.5917 32.5284 60.1633 33.1732 59.5685 33.6382C58.9738 34.1032 58.2447 34.3634 57.49 34.38C56.7175 34.3458 55.9765 34.0638 55.3768 33.5757C54.777 33.0877 54.3504 32.4194 54.16 31.67C53.981 31.0323 53.8935 30.3724 53.9 29.71Z" fill="url(#paint1_linear_91_304)"/>
<path d="M86.78 23.5L83.96 30.34L82.68 33.64L82.6 33.83C82.28 32.88 81.84 31.7 81.43 30.57L78.83 23.5H76.4L81.47 36.13L79 42H81.26L89.16 23.5H86.78Z" fill="url(#paint2_linear_91_304)"/>
<path d="M74.74 25.1399C74.08 24.0399 72.38 23.2599 70.4 23.2599C69.0004 23.2081 67.6175 23.5774 66.43 24.3199V26.3099C67.4858 25.6095 68.7058 25.1959 69.97 25.1099C70.5875 25.0806 71.2008 25.2254 71.7401 25.5277C72.2793 25.8301 72.7228 26.2778 73.02 26.8199C73.1933 27.3599 73.27 27.9166 73.25 28.4899C72.6633 28.4566 72.06 28.4366 71.44 28.4299C69.9915 28.3422 68.5413 28.5709 67.19 29.0999C66.5091 29.3636 65.9244 29.8281 65.5136 30.4317C65.1028 31.0354 64.8853 31.7497 64.89 32.4799C64.8762 33.0336 64.9836 33.5837 65.2047 34.0915C65.4258 34.5994 65.7552 35.0528 66.17 35.4199C66.9276 35.9927 67.8502 36.3049 68.8 36.3099C69.958 36.3545 71.1042 36.0627 72.1 35.4699C72.6 35.0699 73.0466 34.6232 73.44 34.1299V36.1299H75.37V27.9799C75.4138 26.9943 75.1965 26.0146 74.74 25.1399ZM73.31 30.4399C73.33 31.0199 73.2633 31.5866 73.11 32.1399C72.9966 32.5399 72.81 32.9032 72.55 33.2299C72.2065 33.656 71.7704 33.9981 71.2748 34.2303C70.7792 34.4625 70.2372 34.5786 69.69 34.5699C68.65 34.5699 67.27 34.0199 67.27 32.5399C67.27 31.0599 68.99 30.2899 69.94 30.1399C70.4926 30.0566 71.0512 30.0199 71.61 30.0299C72.17 30.0299 72.7366 30.0499 73.31 30.0899V30.4399Z" fill="url(#paint3_linear_91_304)"/>
<defs>
<linearGradient id="paint0_linear_91_304" x1="10.83" y1="42.01" x2="24.29" y2="-1.89" gradientUnits="userSpaceOnUse">
<stop stop-color="#142942"/>
<stop offset="1" stop-color="#004891"/>
</linearGradient>
<linearGradient id="paint1_linear_91_304" x1="10.83" y1="42.01" x2="24.29" y2="-1.88998" gradientUnits="userSpaceOnUse">
<stop stop-color="#142942"/>
<stop offset="1" stop-color="#004891"/>
</linearGradient>
<linearGradient id="paint2_linear_91_304" x1="10.83" y1="42.01" x2="24.29" y2="-1.89" gradientUnits="userSpaceOnUse">
<stop stop-color="#142942"/>
<stop offset="1" stop-color="#004891"/>
</linearGradient>
<linearGradient id="paint3_linear_91_304" x1="10.83" y1="42.0099" x2="24.29" y2="-1.89007" gradientUnits="userSpaceOnUse">
<stop stop-color="#142942"/>
<stop offset="1" stop-color="#004891"/>
</linearGradient>
</defs>
</svg>
