<svg width="100" height="60" viewBox="0 0 100 60" fill="none" xmlns="http://www.w3.org/2000/svg">
<path d="M10.96 30C10.96 27.0826 12.1189 24.2847 14.1818 22.2218C16.2447 20.1589 19.0426 19 21.96 19C24.8773 19 27.6752 20.1589 29.7381 22.2218C31.801 24.2847 32.96 27.0826 32.96 30C32.96 32.9174 31.801 35.7153 29.7381 37.7782C27.6752 39.8411 24.8773 41 21.96 41C19.0426 41 16.2447 39.8411 14.1818 37.7782C12.1189 35.7153 10.96 32.9174 10.96 30ZM21 34.22L22.14 30.35L23.88 29.82L24.26 28.55L22.51 29.09L24.4 22.75C24.45 22.55 24.3 22.35 24.1 22.35H21.73C21.6391 22.3471 21.55 22.3753 21.4773 22.4298C21.4046 22.4843 21.3526 22.562 21.33 22.65L19.1 30.15L17.35 30.69L16.97 31.96L18.71 31.41L17.13 36.76H26.48C26.67 36.76 26.83 36.63 26.88 36.46L27.41 34.62C27.46 34.42 27.33 34.22 27.11 34.22H21Z" fill="#345D9D"/>
<path d="M39.3099 22.3301H38.6299C38.5033 22.3367 38.4233 22.4034 38.3899 22.5301L36.6199 36.5401C36.6066 36.6734 36.6633 36.7401 36.7899 36.7401H37.4699C37.6033 36.7401 37.6833 36.6734 37.7099 36.5401L39.4899 22.5401C39.5233 22.4067 39.4633 22.3401 39.3099 22.3401" fill="#345D9D"/>
<path d="M42.1999 26.3799H42.8899C43.0233 26.3799 43.0799 26.4499 43.0599 26.5899L41.8099 36.5499C41.7899 36.6832 41.7099 36.7499 41.5699 36.7499H40.8899C40.7566 36.7499 40.6933 36.6832 40.6999 36.5499L41.9699 26.5799C41.9966 26.4466 42.0766 26.3799 42.2099 26.3799" fill="#345D9D"/>
<path d="M79.1001 26.3799H79.7701C79.8967 26.3799 79.9534 26.4499 79.9401 26.5899L78.6901 36.5499C78.6634 36.6832 78.5834 36.7499 78.4501 36.7499H77.7701C77.6367 36.7499 77.5734 36.6832 77.5801 36.5499L78.8601 26.5799C78.8801 26.4466 78.9601 26.3799 79.1001 26.3799Z" fill="#345D9D"/>
<path d="M88.3799 26.9699C87.9133 26.4765 87.2533 26.2332 86.3999 26.2399C85.8399 26.2399 85.3299 26.3432 84.8699 26.5499C84.397 26.7617 83.987 27.0925 83.6799 27.5099C83.6199 27.5632 83.5899 27.5499 83.5899 27.4699L83.6899 26.5899C83.7033 26.4565 83.6499 26.3899 83.5299 26.3899H82.8499C82.7166 26.3899 82.6366 26.4565 82.6099 26.5899L81.3599 36.5499C81.3333 36.6832 81.3866 36.7499 81.5199 36.7499H82.1999C82.3333 36.7499 82.4099 36.6832 82.4299 36.5499L83.3299 29.4099C83.4966 28.7299 83.8099 28.1965 84.2699 27.8099C84.7366 27.4099 85.2966 27.2099 85.9499 27.2099C86.5499 27.2099 87.0299 27.3999 87.3899 27.7799C87.7499 28.1599 87.9266 28.6699 87.9199 29.3099C87.9199 29.4965 87.9133 29.6465 87.8999 29.7599L87.0299 36.5599C87.0299 36.6199 87.0366 36.6632 87.0499 36.6899C87.0899 36.7365 87.1466 36.7599 87.2199 36.7599H87.8999C88.0266 36.7599 88.1033 36.6932 88.1299 36.5599L88.9999 29.5999L89.0299 28.9799C89.0683 28.618 89.0302 28.2521 88.9183 27.9059C88.8063 27.5597 88.6229 27.2408 88.3799 26.9699Z" fill="#345D9D"/>
<path d="M42.2 22.7C42.2473 22.5991 42.3151 22.5093 42.3991 22.4362C42.483 22.3631 42.5813 22.3083 42.6877 22.2753C42.7941 22.2424 42.9061 22.232 43.0167 22.2448C43.1274 22.2577 43.2341 22.2935 43.33 22.35C43.75 22.56 43.9 23.07 43.68 23.48C43.5777 23.6747 43.403 23.8215 43.1936 23.8888C42.9841 23.9561 42.7567 23.9386 42.56 23.84C42.3638 23.7339 42.2171 23.5549 42.1516 23.3416C42.0861 23.1284 42.1071 22.8979 42.21 22.7" fill="#345D9D"/>
<path d="M80.2599 22.35C80.164 22.2935 80.0573 22.2577 79.9467 22.2448C79.8361 22.232 79.724 22.2424 79.6176 22.2753C79.5113 22.3083 79.4129 22.3631 79.329 22.4362C79.245 22.5093 79.1772 22.5991 79.1299 22.7C78.9199 23.1 79.0799 23.62 79.4899 23.84C79.8999 24.06 80.4099 23.89 80.6199 23.48C80.7164 23.2814 80.7329 23.0533 80.6659 22.843C80.5989 22.6326 80.4535 22.4561 80.2599 22.35Z" fill="#345D9D"/>
<path d="M61.41 27.02C62.11 26.4866 62.9333 26.22 63.88 26.22C64.8266 26.22 65.5833 26.4766 66.15 26.99C66.71 27.5233 66.9867 28.2333 66.98 29.12V29.36C66.9667 29.4333 66.9266 29.4733 66.86 29.48H66.06C66.0203 29.4726 65.9837 29.4533 65.9552 29.4248C65.9266 29.3962 65.9074 29.3597 65.9 29.32V29.31C65.921 29.0235 65.88 28.736 65.78 28.4668C65.6799 28.1976 65.523 27.9531 65.32 27.75C64.92 27.3633 64.3966 27.17 63.75 27.17C63.1033 27.17 62.53 27.37 62.03 27.77C61.53 28.17 61.2066 28.7 61.06 29.36C60.8866 30.2737 60.7531 31.1946 60.66 32.12L60.61 32.54C60.5433 33.04 60.51 33.4633 60.51 33.81C60.5033 34.4633 60.6966 34.9833 61.09 35.37C61.4766 35.77 61.9966 35.97 62.65 35.97C63.3033 35.97 63.8766 35.77 64.37 35.37C64.8633 34.97 65.1866 34.4366 65.34 33.77L65.36 33.74C65.36 33.66 65.43 33.64 65.48 33.64H66.33C66.39 33.6466 66.42 33.6833 66.42 33.75L66.4 33.83V33.86L66.38 33.9L66.37 33.98C66.1433 34.8733 65.6833 35.59 64.99 36.13C64.29 36.6633 63.4733 36.93 62.54 36.93C61.58 36.93 60.8233 36.6633 60.27 36.13C59.9931 35.8456 59.7755 35.5092 59.6296 35.1401C59.4836 34.7711 59.4124 34.3767 59.42 33.98C59.42 33.29 59.51 32.48 59.59 31.72L59.61 31.57C59.67 31.01 59.85 29.87 60.04 29.15C60.2666 28.27 60.7233 27.56 61.41 27.02Z" fill="#345D9D"/>
<path d="M48.2 35.82C48.23 35.68 48.1 35.59 47.96 35.66C47.54 35.86 46.7 36.06 46.27 35.71C45.97 35.41 46.02 34.87 46.1 34.26V34.16L46.85 28.16H48.98C49.04 28.1667 49.0934 28.1533 49.14 28.12C49.177 28.0708 49.198 28.0115 49.2 27.95L49.27 27.47C49.27 27.3433 49.21 27.2767 49.09 27.27H46.95L47.35 23.97C47.3767 23.8433 47.32 23.7767 47.18 23.77H46.52C46.3867 23.7633 46.3067 23.83 46.28 23.97L45.98 26.29L45.86 27.34L44.96 34.64C44.85 35.61 45.05 36.38 45.83 36.74C46.51 37.04 47.36 36.94 47.96 36.71C47.9998 36.6905 48.0348 36.6625 48.0625 36.6279C48.0901 36.5933 48.1098 36.5531 48.12 36.51L48.2 35.82Z" fill="#345D9D"/>
<path d="M70.3 27.02C71 26.4866 71.8233 26.22 72.77 26.22C73.7167 26.22 74.4733 26.4866 75.04 27.02C75.6067 27.5533 75.8867 28.26 75.88 29.14C75.88 29.7 75.8133 30.51 75.68 31.57C75.5889 32.3778 75.4486 33.1793 75.26 33.97C75.0267 34.87 74.5667 35.59 73.88 36.13C73.18 36.6633 72.3633 36.93 71.43 36.93C70.47 36.93 69.7133 36.6633 69.16 36.13C68.8832 35.8456 68.6655 35.5092 68.5196 35.1401C68.3737 34.7711 68.3024 34.3767 68.31 33.98C68.31 33.29 68.39 32.58 68.48 31.73L68.5 31.57C68.58 30.88 68.74 29.87 68.93 29.15C69.1567 28.27 69.6167 27.56 70.31 27.02M74.7 30.59C74.7667 30.0966 74.8 29.67 74.8 29.31C74.821 29.0235 74.7801 28.736 74.68 28.4668C74.5799 28.1976 74.423 27.9531 74.22 27.75C73.8267 27.37 73.3033 27.1766 72.65 27.17C72.0033 27.17 71.43 27.37 70.93 27.77C70.4367 28.17 70.1133 28.7 69.96 29.36C69.7569 30.4118 69.6067 31.4731 69.51 32.54C69.4433 33.04 69.41 33.4633 69.41 33.81C69.41 34.4633 69.6033 34.9833 69.99 35.37C70.3767 35.77 70.8967 35.97 71.55 35.97C72.2033 35.97 72.7767 35.77 73.27 35.37C73.77 34.97 74.0933 34.4366 74.24 33.77C74.34 33.33 74.4533 32.5966 74.58 31.57L74.7 30.59Z" fill="#345D9D"/>
<path d="M54.76 26.21C55.7066 26.21 56.46 26.48 57.02 27.02C57.58 27.55 57.85 28.33 57.87 29.12C57.87 29.68 57.84 30.22 57.8 30.54C57.7867 30.68 57.72 30.7667 57.6 30.8L51.46 32.7C51.4133 33.1334 51.39 33.5034 51.39 33.81C51.39 34.4634 51.5833 34.9834 51.97 35.37C52.3567 35.77 52.8766 35.97 53.53 35.97C54.1833 35.97 54.7567 35.77 55.25 35.37C55.75 34.97 56.0733 34.4367 56.22 33.77L56.24 33.74C56.24 33.66 56.31 33.64 56.36 33.64H57.21C57.2766 33.6467 57.3067 33.6834 57.3 33.75L57.29 33.8L57.27 33.86L57.25 33.98C57.0233 34.8734 56.5633 35.59 55.87 36.13C55.17 36.6634 54.3533 36.93 53.42 36.93C52.46 36.93 51.7033 36.6634 51.15 36.13C50.8731 35.8457 50.6555 35.5093 50.5096 35.1402C50.3637 34.7711 50.2924 34.3768 50.3 33.98C50.3 33.25 50.35 32.6 50.5 31.57L50.51 31.41C50.65 30.45 50.74 29.84 50.92 29.15C51.1191 28.2903 51.6112 27.5268 52.3119 26.9903C53.0126 26.4538 53.8781 26.178 54.76 26.21ZM56.78 29.89C56.82 29.05 56.81 28.39 56.18 27.75C55.7933 27.37 55.2733 27.1767 54.62 27.17C53.9733 27.17 53.4 27.37 52.9 27.77C52.4067 28.17 52.0833 28.7 51.93 29.36C51.83 29.8467 51.7167 30.58 51.59 31.56V31.59L56.68 30.01C56.7467 29.9967 56.78 29.9567 56.78 29.89Z" fill="#345D9D"/>
</svg>
