<svg width="100" height="60" viewBox="0 0 100 60" fill="none" xmlns="http://www.w3.org/2000/svg">
<path d="M80.61 8.11011H63.85C61.55 8.18011 58.7 10.0401 58.18 12.3301L50.28 47.5901C49.75 49.8901 51.17 51.7801 53.45 51.8101H71C72.1574 51.7089 73.2546 51.2503 74.1397 50.4978C75.0248 49.7453 75.654 48.7361 75.94 47.6101L83.84 12.3401C84.37 10.0101 82.92 8.11011 80.6 8.11011" fill="#01798A"/>
<path d="M50.27 47.5901L58.17 12.3301C58.7 10.0301 61.56 8.18011 63.85 8.11011H45.23C42.93 8.15011 40.03 10.0101 39.51 12.3301L31.61 47.5901C31.08 49.8901 32.5 51.7801 34.78 51.8101H53.45C51.17 51.7801 49.75 49.9001 50.27 47.5901Z" fill="#024381"/>
<path d="M31.6 47.5901L39.51 12.3301C40.03 10.0201 42.93 8.1501 45.23 8.1001H29.9C27.59 8.1001 24.62 9.9901 24.09 12.3301L16.18 47.5901C16.1333 47.7901 16.1033 48.0001 16.09 48.2201V48.8701C16.149 49.6879 16.5226 50.4511 17.1323 50.9993C17.7421 51.5475 18.5405 51.8381 19.36 51.8101H34.79C32.51 51.7801 31.09 49.9001 31.61 47.5901" fill="#DD0228"/>
<path d="M45.56 33.8H45.85C46.1167 33.8 46.2934 33.71 46.38 33.53L47.13 32.39H49.15L48.73 33.14H51.15L50.85 34.28H47.96C47.6267 34.78 47.2167 35.02 46.73 35H45.23L45.56 33.8ZM45.22 35.44H50.53L50.19 36.69H48.06L47.73 37.89H49.81L49.47 39.13H47.4L46.92 40.91C46.8 41.21 46.9567 41.3434 47.39 41.31H49.09L48.77 42.47H45.5C44.88 42.47 44.67 42.1134 44.87 41.4L45.48 39.13H44.15L44.49 37.89H45.82L46.15 36.69H44.88L45.22 35.44ZM53.69 32.38L53.61 33.11C53.61 33.11 54.61 32.35 55.52 32.35H58.88L57.59 37.04C57.49 37.5734 57.0334 37.84 56.22 37.84H52.42L51.52 41.14C51.4734 41.3134 51.5467 41.4 51.74 41.4H52.49L52.21 42.42H50.31C49.5767 42.42 49.27 42.2 49.39 41.76L51.91 32.38H53.69ZM56.54 33.7H53.54L53.18 34.97C53.18 34.97 53.68 34.61 54.52 34.59H56.3L56.54 33.7ZM55.45 36.64C55.6767 36.6667 55.7967 36.5767 55.81 36.37L56 35.71H53L52.74 36.64H55.45ZM53.43 38.15H55.16L55.13 38.91H55.59C55.8234 38.91 55.94 38.8367 55.94 38.69L56.07 38.19H57.51L57.31 38.91C57.1567 39.51 56.7267 39.82 56.02 39.84H55.1V41.14C55.08 41.34 55.2634 41.44 55.65 41.44H56.52L56.23 42.47H54.16C53.5734 42.5034 53.2867 42.22 53.3 41.62L53.43 38.15ZM32.45 26.13C32.2685 27.1989 31.6898 28.1597 30.83 28.82C29.88 29.4744 28.7425 29.8009 27.59 29.75C26.35 29.75 25.44 29.43 24.86 28.79C24.4508 28.3126 24.2366 27.6984 24.26 27.07C24.2534 26.7767 24.2867 26.4634 24.36 26.13L25.76 19.29H27.89L26.49 26.06C26.4507 26.2304 26.4339 26.4053 26.44 26.58C26.44 26.9267 26.5267 27.21 26.7 27.43C26.9467 27.7634 27.3567 27.9267 27.93 27.92C28.5834 27.92 29.1167 27.7567 29.53 27.43C29.9567 27.11 30.23 26.6534 30.35 26.06L31.75 19.29H33.86L32.45 26.13ZM41.38 23.44H43.04L41.74 29.54H40.08L41.38 23.44ZM41.9 21.22H43.58L43.27 22.7H41.59L41.9 21.22ZM44.52 29.08C44.2999 28.8566 44.1279 28.5906 44.0144 28.2982C43.9009 28.0059 43.8483 27.6934 43.86 27.38C43.86 27.0867 43.89 26.8 43.95 26.52C44.15 25.52 44.57 24.7334 45.21 24.16C45.85 23.5802 46.6866 23.2656 47.55 23.28C48.3034 23.28 48.8967 23.4934 49.33 23.92C49.7634 24.3467 49.98 24.92 49.98 25.64C49.98 25.94 49.9467 26.2334 49.88 26.52C49.6934 27.5 49.2767 28.2734 48.63 28.84C47.9871 29.4126 47.1508 29.72 46.29 29.7C45.5434 29.7 44.9534 29.4934 44.52 29.08ZM47.69 27.88C47.9834 27.5534 48.1934 27.0667 48.32 26.42C48.3601 26.2226 48.3802 26.0215 48.38 25.82C48.38 25.44 48.2867 25.1467 48.1 24.94C47.9 24.74 47.63 24.64 47.29 24.64C46.8234 24.64 46.4467 24.8 46.16 25.12C45.8667 25.4534 45.6534 25.9467 45.52 26.6L45.46 27.19C45.46 27.5634 45.5567 27.85 45.75 28.05C45.9434 28.25 46.21 28.35 46.55 28.35C47.0167 28.35 47.3967 28.19 47.69 27.87M60.79 33.84L61.19 32.41H63.22L63.12 32.93C63.12 32.93 64.17 32.41 64.92 32.41H67.42L67.02 33.84H66.62L64.73 40.55H65.13L64.75 41.89H64.35L64.19 42.47H62.23L62.39 41.89H58.52L58.89 40.55H59.29L61.18 33.84H60.79ZM62.97 33.84L62.46 35.65C62.46 35.65 63.34 35.31 64.1 35.22C64.27 34.58 64.5 33.84 64.5 33.84H62.97ZM62.22 36.51L61.7 38.41C61.7 38.41 62.68 37.92 63.35 37.88L63.74 36.51H62.22ZM62.6 40.55L62.99 39.17H61.47L61.08 40.55H62.6ZM67.5 32.32H69.42L69.5 33.03C69.48 33.21 69.5867 33.3 69.82 33.3H70.15L69.81 34.5H68.41C67.8767 34.5334 67.5967 34.3267 67.57 33.88L67.5 32.32ZM66.95 34.9H73.13L72.77 36.2H70.8L70.46 37.4H72.43L72.06 38.69H69.87L69.37 39.44H70.45L70.7 40.95C70.7334 41.1034 70.86 41.18 71.08 41.18H71.42L71.07 42.42H69.89C69.2767 42.4534 68.96 42.2467 68.94 41.8L68.65 40.42L67.68 41.89C67.4467 42.2967 67.0934 42.49 66.62 42.47H64.82L65.17 41.22H65.73C65.9567 41.22 66.1567 41.1167 66.33 40.91L67.85 38.68H65.88L66.25 37.4H68.38L68.72 36.2H66.58L66.95 34.9ZM34.4 23.44H35.9L35.73 24.32L35.94 24.07C36.1609 23.8162 36.4347 23.6138 36.7423 23.4774C37.0499 23.3409 37.3836 23.2735 37.72 23.28C38.3534 23.28 38.81 23.4667 39.09 23.84C39.37 24.2134 39.4467 24.73 39.32 25.39L38.49 29.55H36.95L37.7 25.78C37.7667 25.38 37.7434 25.09 37.63 24.91C37.51 24.7234 37.29 24.63 36.97 24.63C36.57 24.63 36.2367 24.7534 35.97 25C35.69 25.2534 35.5067 25.6 35.42 26.04L34.73 29.55H33.2L34.4 23.44ZM51.62 23.44H53.12L52.95 24.32L53.16 24.07C53.3809 23.8162 53.6547 23.6138 53.9623 23.4774C54.2699 23.3409 54.6036 23.2735 54.94 23.28C55.5734 23.28 56.03 23.4667 56.31 23.84C56.59 24.2134 56.6667 24.73 56.54 25.39L55.71 29.55H54.17L54.91 25.78C54.99 25.38 54.97 25.09 54.85 24.91C54.73 24.7234 54.51 24.63 54.19 24.63C53.79 24.63 53.4567 24.7534 53.19 25C52.91 25.2534 52.7267 25.6 52.64 26.04L51.95 29.55H50.41L51.62 23.44ZM59.04 19.65H63.41C64.25 19.65 64.8934 19.84 65.34 20.22C65.7867 20.6 66.01 21.1467 66.01 21.86V21.88C65.9988 22.202 65.9654 22.5227 65.91 22.84C65.71 23.78 65.2634 24.5367 64.57 25.11C63.8834 25.6834 63.0667 25.97 62.12 25.97H59.78L59.06 29.55H57.03L59.04 19.65ZM60.14 24.25H62.08C62.58 24.25 62.98 24.1334 63.28 23.9C63.5667 23.66 63.7634 23.2967 63.87 22.81L63.9 22.56L63.92 22.36C63.92 22 63.7967 21.7434 63.55 21.59C63.1907 21.3907 62.7787 21.3069 62.37 21.35H60.73L60.14 24.25ZM75.07 30.73C74.6684 31.6559 74.129 32.5156 73.47 33.28C73.11 33.65 72.4 34.5 70.68 34.44L70.83 33.39C72.27 32.94 73.05 30.93 73.49 30.03L72.96 23.46L74.08 23.44H75.01L75.11 27.57L76.87 23.44H78.64L75.07 30.73ZM70.11 23.94L69.41 24.43C68.67 23.85 68.01 23.49 66.71 24.09C64.94 24.92 63.46 31.26 68.32 29.17L68.6 29.5L70.52 29.55L71.77 23.79L70.11 23.94ZM69.02 27.09C68.72 28 68.03 28.61 67.49 28.43C66.96 28.27 66.76 27.38 67.07 26.47C67.38 25.55 68.07 24.95 68.61 25.12C69.14 25.29 69.34 26.17 69.02 27.09Z" fill="white"/>
</svg>
