<svg width="100" height="60" viewBox="0 0 100 60" fill="none" xmlns="http://www.w3.org/2000/svg">
<rect width="100" height="60" fill="#1A1A1A"/>
<path fill-rule="evenodd" clip-rule="evenodd" d="M49.23 29.9999C49.2327 29.4216 49.0076 28.8654 48.6034 28.4518C48.1991 28.0382 47.6483 27.8004 47.07 27.7899C46.5083 27.8277 45.9819 28.0775 45.5974 28.4887C45.2128 28.9 44.9989 29.4419 44.9989 30.0049C44.9989 30.5679 45.2128 31.1099 45.5974 31.5212C45.9819 31.9324 46.5083 32.1822 47.07 32.2199C47.65 32.2094 48.2024 31.9702 48.6069 31.5545C49.0114 31.1387 49.2354 30.58 49.23 29.9999ZM50.16 26.9099C50.9792 27.7338 51.4393 28.8481 51.44 30.0099C51.4427 30.5845 51.331 31.1538 51.1115 31.6847C50.892 32.2157 50.5689 32.6976 50.1613 33.1025C49.7536 33.5074 49.2695 33.8271 48.737 34.0429C48.2046 34.2588 47.6345 34.3666 47.06 34.3599C46.2938 34.3597 45.5568 34.0663 45 33.5399L44.9 33.4699V38.3699L42.7 39.0699V25.8099H44.9V26.4699L45 26.3799C45.2773 26.1233 45.6036 25.9255 45.9594 25.7983C46.3151 25.6711 46.6929 25.6173 47.07 25.6399C48.22 25.6399 49.32 26.0899 50.16 26.9099Z" fill="white"/>
<path fill-rule="evenodd" clip-rule="evenodd" d="M54.45 29.9999C54.4446 30.58 54.6685 31.1387 55.0731 31.5545C55.4776 31.9702 56.03 32.2094 56.61 32.2199C57.78 32.2199 58.77 31.2199 58.77 29.9999C58.7727 29.4216 58.5476 28.8654 58.1433 28.4518C57.7391 28.0382 57.1882 27.8004 56.61 27.7899C56.0317 27.8004 55.4809 28.0382 55.0766 28.4518C54.6724 28.8654 54.4472 29.4216 54.45 29.9999ZM53.51 33.0999C52.6908 32.2761 52.2306 31.1617 52.23 29.9999C52.2259 29.4246 52.3366 28.8542 52.5556 28.3221C52.7745 27.7899 53.0973 27.3068 53.5051 26.9009C53.9129 26.4949 54.3975 26.1744 54.9306 25.9579C55.4637 25.7414 56.0346 25.6333 56.61 25.6399C57.3833 25.6399 58.07 25.9133 58.67 26.4599L58.77 26.5399V25.7999H60.99V34.1799H58.77V33.5299L58.67 33.6299C58.3923 33.8817 58.0669 34.0752 57.713 34.1989C57.3591 34.3226 56.984 34.3739 56.61 34.3499C55.451 34.3546 54.337 33.9018 53.51 33.0899" fill="white"/>
<path fill-rule="evenodd" clip-rule="evenodd" d="M63.2 39.0699L65.2 34.2199L61.84 25.8199H64.3L66.39 31.0299L68.51 25.8099H70.95L65.6 39.0699H63.2Z" fill="white"/>
<path fill-rule="evenodd" clip-rule="evenodd" d="M10.28 27.06C9.4976 27.06 8.74725 27.3708 8.19402 27.924C7.64079 28.4773 7.32999 29.2276 7.32999 30.01C7.32999 30.7924 7.64079 31.5427 8.19402 32.096C8.74725 32.6492 9.4976 32.96 10.28 32.96C11.0624 32.96 11.8127 32.6492 12.366 32.096C12.9192 31.5427 13.23 30.7924 13.23 30.01C13.23 29.2276 12.9192 28.4773 12.366 27.924C11.8127 27.3708 11.0624 27.06 10.28 27.06ZM10.28 34.28C9.14599 34.2824 8.05697 33.8367 7.24999 33.04C6.45421 32.2302 6.0083 31.1403 6.0083 30.005C6.0083 28.8697 6.45421 27.7797 7.24999 26.97C8.06447 26.186 9.14948 25.7455 10.28 25.74C11.45 25.74 12.43 26.35 13.04 26.87L13.21 27.01V25.92H14.57V34.09H13.21V33L13.04 33.16C12.2796 33.8465 11.3035 34.2461 10.28 34.29" fill="white"/>
<path fill-rule="evenodd" clip-rule="evenodd" d="M17.03 34.1V27.2H15.8V25.92H17.04V23.5C17.0386 23.1495 17.1073 22.8023 17.2419 22.4787C17.3766 22.1552 17.5746 21.8618 17.8243 21.6159C18.074 21.3699 18.3703 21.1764 18.6958 21.0466C19.0214 20.9167 19.3696 20.8533 19.72 20.86H21.42L21.09 22.16H19.76C19.3991 22.1703 19.0561 22.3196 18.8027 22.5767C18.5493 22.8339 18.405 23.179 18.4 23.54V25.92H20.99V27.21H18.4V34.09L17.03 34.1Z" fill="white"/>
<path fill-rule="evenodd" clip-rule="evenodd" d="M26.1 34.1C25.3926 34.0921 24.7165 33.8069 24.2172 33.3058C23.7178 32.8046 23.4352 32.1274 23.43 31.42V27.2H22.18V25.91H23.43V20.85H24.78V25.91H27.36V27.2H24.78V31.37C24.78 32.12 25.43 32.8 26.13 32.8H27.46L27.81 34.08L26.1 34.1Z" fill="white"/>
<path fill-rule="evenodd" clip-rule="evenodd" d="M31.96 27.11C30.9 27.11 29.93 27.87 29.52 29.01V29.02L29.44 29.18H34.48L34.38 28.99C34.2205 28.463 33.9007 27.9988 33.4652 27.6619C33.0298 27.325 32.5001 27.1321 31.95 27.11M31.95 34.23C31.4276 34.2321 30.9107 34.1236 30.4333 33.9116C29.9558 33.6996 29.5287 33.389 29.18 33C28.5306 32.2941 28.1424 31.3872 28.08 30.43C28.06 30.3033 28.05 30.1767 28.05 30.05C28.0485 28.9607 28.4511 27.9096 29.18 27.1C29.5305 26.7152 29.9575 26.4078 30.4336 26.1974C30.9097 25.9871 31.4245 25.8784 31.945 25.8784C32.4655 25.8784 32.9803 25.9871 33.4564 26.1974C33.9325 26.4078 34.3595 26.7152 34.71 27.1C35.1088 27.5263 35.4144 28.031 35.6072 28.582C35.8001 29.133 35.8759 29.7181 35.83 30.3H29.36V30.44C29.56 31.89 30.64 32.98 31.9 33C32.6692 32.9636 33.4015 32.6594 33.97 32.14L35.11 32.82C34.7967 33.1467 34.4633 33.42 34.11 33.64C33.51 34 32.76 34.21 31.94 34.24" fill="white"/>
<path fill-rule="evenodd" clip-rule="evenodd" d="M37.18 34.1V25.92H38.54V26.96L38.73 26.75C39.21 26.21 40.62 25.78 41.56 25.74L41.24 27.1C40.5359 27.0998 39.8595 27.3746 39.3551 27.8659C38.8507 28.3572 38.5582 29.0261 38.54 29.73V34.09L37.18 34.1Z" fill="white"/>
<path fill-rule="evenodd" clip-rule="evenodd" d="M82.68 28.13L85.06 26.75L84.62 25.97C84.37 25.51 84.46 25.32 84.99 25.32C86.5167 25.3067 88.0433 25.3067 89.57 25.32C90.0233 25.32 90.1333 25.5167 89.9 25.91C89.1467 27.2434 88.3867 28.5667 87.62 29.88C87.36 30.3 87.15 30.3 86.9 29.89C86.63 29.47 86.7 29.58 86.42 29.09L84.04 30.47C84.0933 30.59 84.1467 30.6834 84.2 30.75C84.79 31.77 85.05 32.27 85.66 33.27C86.38 34.47 87.89 34.55 88.74 33.44C88.84 33.3067 88.9267 33.1734 89 33.04L93.32 25.56C93.4733 25.3 93.5867 25.0267 93.66 24.74C93.7186 24.4759 93.717 24.2019 93.6551 23.9385C93.5932 23.6751 93.4728 23.429 93.3027 23.2185C93.1326 23.0081 92.9173 22.8387 92.6727 22.723C92.4281 22.6072 92.1606 22.5481 91.89 22.55C88.8033 22.53 85.7167 22.53 82.63 22.55C82.3121 22.5425 81.9978 22.6188 81.7187 22.7713C81.4397 22.9239 81.2057 23.1473 81.0405 23.419C80.8752 23.6907 80.7845 24.0011 80.7774 24.3191C80.7703 24.637 80.8471 24.9512 81 25.23C81.2067 25.63 81.43 26.02 81.67 26.4L82.68 28.13Z" fill="#306E9A"/>
<path fill-rule="evenodd" clip-rule="evenodd" d="M75.82 35.84V33.1H74.92C74.42 33.1067 74.2966 32.8934 74.55 32.46C75.3033 31.14 76.0633 29.83 76.83 28.53C77.05 28.1167 77.2766 28.1167 77.51 28.53L79.78 32.48C80.02 32.8867 79.9033 33.0934 79.43 33.1H78.51V35.84H81.72C83.11 35.83 83.92 34.57 83.39 33.28L83.19 32.86L78.91 25.43C78.77 25.17 78.5933 24.9367 78.38 24.73C78.1835 24.5469 77.9482 24.4106 77.6916 24.3313C77.435 24.252 77.1638 24.2318 76.8983 24.2722C76.6328 24.3126 76.3799 24.4126 76.1585 24.5646C75.9371 24.7166 75.753 24.9168 75.62 25.15C74.0666 27.7967 72.5333 30.4467 71.0199 33.1C70.8583 33.3672 70.7689 33.6719 70.7606 33.9841C70.7524 34.2963 70.8255 34.6053 70.9727 34.8807C71.12 35.1561 71.3364 35.3884 71.6007 35.5549C71.8649 35.7213 72.168 35.8161 72.48 35.83C72.92 35.86 74.83 35.83 75.82 35.83" fill="#1F4066"/>
</svg>
