<svg xmlns="http://www.w3.org/2000/svg" width="100" height="60" fill="none" viewBox="0 0 100 60">
   <path fill="#fff" d="M0 0h100v60H0z"/>
   <g clip-path="url(#tabler-payments-payoneer-a)">
      <path fill="#fff" d="M0 0h100v60H0z"/>
      <g filter="url(#tabler-payments-payoneer-b)">
         <path fill="#FE4800" d="M-11.45-40.3a73.16 68.14 0 1 0 0 136.28 73.16 68.14 0 1 0 0-136.28"/>
      </g>
      <g filter="url(#tabler-payments-payoneer-c)">
         <path fill="#E248CF" d="M49.32 32.69a43.55 40.56 0 1 0 0 81.11 43.55 40.56 0 1 0 0-81.11"/>
      </g>
      <g filter="url(#tabler-payments-payoneer-d)">
         <path fill="#2490E1" d="M94.4 29.66a36.73 34.2 0 1 0 0 68.4 36.73 34.2 0 1 0 0-68.4"/>
      </g>
      <g filter="url(#tabler-payments-payoneer-e)">
         <path fill="#2CD87B" d="M114.99-40.12a47.03 43.8 0 1 0 0 87.6 47.03 43.8 0 1 0 0-87.6"/>
      </g>
      <g filter="url(#tabler-payments-payoneer-f)">
         <path fill="#FBD600" d="M61.64-67.16a45.29 42.18 0 1 0 0 84.36 45.29 42.18 0 1 0 0-84.36"/>
      </g>
   </g>
   <path fill="#fff" d="M14.13 34.85v-4.13h1.78c3.3 0 5.3-1.85 5.3-4.61 0-2.6-2.01-4.11-4.91-4.11H12v12.85zM16.2 23.9c1.71 0 2.86.79 2.86 2.45 0 1.54-1.29 2.45-2.97 2.45h-1.96v-4.9zm34.72 6.45a4.57 4.57 0 0 0-4.66-4.66 4.64 4.64 0 0 0-4.64 4.63v.08a4.47 4.47 0 0 0 4.64 4.63 4.6 4.6 0 0 0 4.66-4.68m-7.28 0c0-1.54 1.13-2.76 2.62-2.71 1.65.04 2.67 1.19 2.63 2.71-.03 1.54-1.14 2.71-2.63 2.71a2.63 2.63 0 0 1-2.62-2.7m27.43.53q.07-.46.07-.94a4.2 4.2 0 0 0-4.35-4.26 4.57 4.57 0 0 0-4.63 4.51v.11c0 2.73 1.82 4.71 4.57 4.71 1.85 0 3.4-.88 4.05-2.1l-1.59-.88a2.7 2.7 0 0 1-2.34 1.16c-1.4 0-2.41-.86-2.61-2.32zm-6.7-1.55a2.3 2.3 0 0 1 2.38-1.91c1.23 0 2.18.78 2.29 1.91zm-25-3.48-2.48 6.4-2.2-6.4h-2.33l3.33 8.99L34.3 38h2.2l5.06-12.14zM88 25.9a3 3 0 0 0-.88-.11c-.88 0-1.87.5-2.29 1.36v-1.29h-2.02v9h2.02v-4.82c0-1.67 1.12-2.36 2.26-2.36q.46 0 .9.1zm-6.68 4.98q.06-.46.06-.94a4.2 4.2 0 0 0-4.34-4.26 4.56 4.56 0 0 0-4.63 4.51v.11c0 2.73 1.82 4.71 4.56 4.71 1.85 0 3.4-.88 4.05-2.1l-1.58-.88a2.7 2.7 0 0 1-2.34 1.16c-1.41 0-2.42-.86-2.62-2.32zm-6.72-1.55a2.3 2.3 0 0 1 2.37-1.91c1.24 0 2.18.78 2.3 1.91zm-45.45 1a2.8 2.8 0 0 1-2.72 2.86h-.12c-1.57 0-2.62-1.22-2.62-2.85a2.84 2.84 0 0 1 2.8-2.83c1.59-.01 2.66 1.2 2.66 2.83m31.65-.6c0-2.52-1.22-4.04-3.51-4.04-1.21 0-2.33.52-2.94 1.34v-1.17h-2.04v9h2.04v-4.89c0-1.5 1.09-2.46 2.39-2.46s1.99.88 1.99 2.37v4.97h2.07zm-31.65-3.88v1.16a3.6 3.6 0 0 0-2.99-1.33c-2.47 0-4.54 2.2-4.54 4.78 0 2.6 1.77 4.55 4.17 4.55 1.55 0 2.71-.55 3.37-1.47v1.3h2v-9z"/>
   <defs>
      <filter id="tabler-payments-payoneer-b" width="216" height="205.95" x="-119.45" y="-75.14" color-interpolation-filters="sRGB" filterUnits="userSpaceOnUse">
         <feFlood flood-opacity="0" result="BackgroundImageFix"/>
         <feBlend in="SourceGraphic" in2="BackgroundImageFix" mode="normal" result="shape"/>
         <feGaussianBlur result="effect1_foregroundBlur_1_4221" stdDeviation="17.42"/>
      </filter>
      <filter id="tabler-payments-payoneer-c" width="156.77" height="150.79" x="-29.07" y="-2.15" color-interpolation-filters="sRGB" filterUnits="userSpaceOnUse">
         <feFlood flood-opacity="0" result="BackgroundImageFix"/>
         <feBlend in="SourceGraphic" in2="BackgroundImageFix" mode="normal" result="shape"/>
         <feGaussianBlur result="effect1_foregroundBlur_1_4221" stdDeviation="17.42"/>
      </filter>
      <filter id="tabler-payments-payoneer-d" width="143.13" height="138.09" x="22.83" y="-5.18" color-interpolation-filters="sRGB" filterUnits="userSpaceOnUse">
         <feFlood flood-opacity="0" result="BackgroundImageFix"/>
         <feBlend in="SourceGraphic" in2="BackgroundImageFix" mode="normal" result="shape"/>
         <feGaussianBlur result="effect1_foregroundBlur_1_4221" stdDeviation="17.42"/>
      </filter>
      <filter id="tabler-payments-payoneer-e" width="163.74" height="157.28" x="33.12" y="-74.96" color-interpolation-filters="sRGB" filterUnits="userSpaceOnUse">
         <feFlood flood-opacity="0" result="BackgroundImageFix"/>
         <feBlend in="SourceGraphic" in2="BackgroundImageFix" mode="normal" result="shape"/>
         <feGaussianBlur result="effect1_foregroundBlur_1_4221" stdDeviation="17.42"/>
      </filter>
      <filter id="tabler-payments-payoneer-f" width="160.26" height="154.04" x="-18.49" y="-102" color-interpolation-filters="sRGB" filterUnits="userSpaceOnUse">
         <feFlood flood-opacity="0" result="BackgroundImageFix"/>
         <feBlend in="SourceGraphic" in2="BackgroundImageFix" mode="normal" result="shape"/>
         <feGaussianBlur result="effect1_foregroundBlur_1_4221" stdDeviation="17.42"/>
      </filter>
      <clipPath id="tabler-payments-payoneer-a">
         <path fill="#fff" d="M0 0h100v60H0z"/>
      </clipPath>
   </defs>
</svg>
